# xmcd
#
# Track frame offsets:
#	150
#	1888
#	28730
#	47837
#	70765
#	105160
#	142716
#	149591
#	171792
#	214488
#	215620
#	234941
#	250274
#	265964
#	279991
#	282096
#
# Disc length: 4012 seconds
#
# Revision: 0
# Processed by: cddbd v1.5.2PL0 Copyright (c) Steve Scherf et al.
# Submitted via: dBpowerAMP V4.0
#
DISCID=e60faa10
DTITLE=Earth, Wind and Fire - Gratitude DTS
DYEAR=1999
DGENRE=Funk
TTITLE0=Introduction 
TTITLE1=Africano/Power (Instrumental)
TTITLE2=Yearnin' Learnin'
TTITLE3=Devotion
TTITLE4=Sun Goddess
TTITLE5=Reasons
TTITLE6=Sing A Message To You
TTITLE7=Shining Star
TTITLE8=New World Symphony
TTITLE9=Interlude #1
TTITLE10=Sunshine
TTITLE11=Sing A Song
TTITLE12=Gratitude
TTITLE13=Celebrate
TTITLE14=Interlude #2
TTITLE15=Can't Hide Love
EXTD=
EXTT0=
EXTT1=
EXTT2=
EXTT3=
EXTT4=
EXTT5=
EXTT6=
EXTT7=
EXTT8=
EXTT9=
EXTT10=
EXTT11=
EXTT12=
EXTT13=
EXTT14=
EXTT15=
PLAYORDER=
